<?xml version="1.0" encoding="UTF-8" standalone="no"?>
<!DOCTYPE svg PUBLIC "-//W3C//DTD SVG 1.1//EN" "http://www.w3.org/Graphics/SVG/1.1/DTD/svg11.dtd">
<!-- Created with Vectornator by John M Kagaruki, Eyecuemedia Solutions) -->
<svg height="512.0px" stroke-miterlimit="10" style="fill-rule:nonzero;clip-rule:evenodd;stroke-linecap:round;stroke-linejoin:round;" version="1.1" viewBox="0 0 512 512" width="512.0px" xml:space="preserve" xmlns="http://www.w3.org/2000/svg" xmlns:xlink="http://www.w3.org/1999/xlink">
<defs/>
<g id="Layer-1">
<g opacity="1">
<path d="M80.1082 335.872L101.078 396.562C101.431 397.584 101.184 398.717 100.439 399.5L78.4596 422.582L121.746 439.518C122.855 439.951 123.585 441.02 123.585 442.211L123.585 451.852C123.585 459.464 125.194 463.811 127.674 466.447C130.142 469.071 134.06 470.557 139.957 471.182L378.919 469.742L378.968 469.742C382.029 469.527 384.544 468.754 387.027 466.437C389.498 464.132 390.081 457.324 390.081 457.254L390.517 442.343C390.517 441.078 391.287 439.94 392.462 439.469L436.971 422.194L414.604 399.098C413.835 398.303 413.586 397.14 413.961 396.1L435.646 336.049L357.291 372.269L356.884 397.274C356.858 398.86 355.564 400.133 353.977 400.133L162.839 400.133C161.235 400.133 159.934 398.832 159.934 397.227L159.934 371.833L80.1082 335.872Z" fill="#231f20" fill-rule="nonzero" opacity="1" stroke="none"/>
<path d="M202.443 40.8207C201.984 40.8422 201.516 40.9876 201.085 41.2571L70.154 123.073C69.3371 123.583 68.8638 124.499 68.9196 125.461L80.1174 318.283C80.1754 319.281 80.7944 320.16 81.7147 320.55L167.5 356.955C167.676 357.03 167.759 357.068 167.759 357.068C171.526 358.988 175.091 360.359 178.151 363.161C179.631 364.517 180.974 366.367 181.594 368.608C182.215 370.855 182.085 373.301 181.4 375.816C181.392 375.846 181.391 375.867 181.383 375.897C181.38 375.911 181.378 375.916 181.367 375.962L174.751 398.788C174.26 400.483 175.539 402.172 177.303 402.159L239.219 401.711C240.412 401.702 241.453 400.896 241.758 399.742L248.635 373.78C248.635 373.78 248.631 373.784 248.651 373.715C250.304 367.921 250.28 363.729 249.394 360.559C248.522 357.437 246.708 354.9 243.98 352.64C238.428 348.039 229.314 344.874 219.672 340.469C219.638 340.454 219.594 340.435 219.559 340.421C219.559 340.421 116.152 298.108 116.152 298.108C114.797 297.554 113.87 296.286 113.744 294.827L99.8326 133.241C99.7251 131.993 100.264 130.777 101.261 130.018L203.089 52.5222C203.186 52.449 203.278 52.3647 203.364 52.2798C204.263 51.3914 204.966 50.0461 205.336 48.1584C205.671 46.453 205.584 44.7489 205.368 43.245C205.152 41.735 203.821 40.7562 202.443 40.8207Z" fill="#231f20" fill-rule="nonzero" opacity="1" stroke="none"/>
<path d="M309.574 40.853C308.175 40.7991 306.838 41.8149 306.665 43.3582C306.458 45.1931 306.614 46.9314 306.988 48.417C307.351 49.862 307.861 51.2417 309.073 52.3121C309.123 52.3562 309.165 52.4009 309.218 52.4414L410.71 130.021C411.705 130.781 412.243 131.997 412.135 133.244L398.227 294.981C398.109 296.348 397.237 297.533 395.968 298.052L292.458 340.405C292.414 340.423 292.372 340.433 292.329 340.453L292.28 340.486C282.656 344.88 273.569 348.041 268.021 352.64C265.299 354.895 263.448 357.427 262.574 360.559C261.689 363.733 261.676 367.925 263.334 373.715C263.354 373.788 263.366 373.78 263.366 373.78L270.153 399.675C270.456 400.831 271.499 401.64 272.695 401.645L334.236 401.9C335.979 401.907 337.25 400.251 336.791 398.57L330.601 375.849C330.598 375.838 330.604 375.827 330.601 375.816C329.913 373.303 329.775 370.83 330.407 368.576C331.035 366.336 332.416 364.498 333.947 363.129C337.078 360.329 340.75 358.943 344.743 357.02C344.754 357.015 344.828 356.994 344.921 356.955L430.285 320.56C431.206 320.167 431.826 319.286 431.884 318.286L443.08 125.474C443.136 124.51 442.662 123.592 441.843 123.081L310.948 41.2894C310.509 41.0151 310.04 40.871 309.574 40.853Z" fill="#231f20" fill-rule="nonzero" opacity="1" stroke="none"/>
<path d="M85.5808 341.772L106.588 398.751L84.1885 421.322L123.997 436.292L124.127 395.71C123.681 388.374 128.199 384.024 139.851 382.291C152.732 381.116 158.421 375.218 149.789 371.692C149.789 371.692 85.5808 341.772 85.5808 341.772Z" fill="#fff200" fill-rule="nonzero" opacity="1" stroke="none"/>
<path d="M128.557 403.934L386.458 403.934L386.458 455.306C386.013 464.365 381.983 466.949 375.271 466.523L143.783 466.523C133.932 467.82 128.101 462.632 128.557 454.435L128.557 403.934Z" fill="#fff200" fill-rule="nonzero" opacity="1" stroke="none"/>
<path d="M430.423 341.692L410.048 398.117L431.425 420.753L390.494 437.117L390.589 397.013C390.589 389.677 387.096 384.039 375.017 382.307C370.077 381.445 357.311 377.316 366.315 371.989C366.315 371.989 430.423 341.692 430.423 341.692Z" fill="#fff200" fill-rule="nonzero" opacity="1" stroke="none"/>
<path d="M242.729 229.968L226.612 208.386L232.433 204.931L233.77 202.337L236.908 204.495L240.492 200.179L245.878 200.614L253.036 199.317L262.441 202.337L264.678 199.317L266.906 201.05L270.034 200.614L272.727 203.198L275.43 203.634L278.103 201.05L283.023 204.931L282.588 209.673L287.508 211.831L287.954 213.564L276.757 228.236L272.727 233.414C272.727 239.889 281.241 242.908 285.716 252.412L288.865 260.61C291.548 270.104 288.399 273.559 290.637 300.33C291.082 313.269 286.617 317.596 284.37 318.883L285.716 327.09L288.399 331.407L290.637 336.149L290.637 339.604L221.691 339.604L221.691 336.149L224.364 331.842L227.493 327.09L228.849 318.883C219.899 314.14 223.028 293.855 222.582 278.747L222.582 271.401C222.582 265.788 223.919 258.887 225.265 255.868C228.849 249.819 236.908 247.225 237.809 242.057L238.254 238.602C238.254 234.711 240.928 232.562 242.729 229.968" fill="#231f20" fill-rule="nonzero" opacity="1" stroke="none"/>
<path d="M238.699 248.962L233.333 252.843C224.819 258.456 226.621 271.832 226.621 278.742L225.72 301.186L226.175 303.78L226.621 305.512C228.403 309.829 227.957 313.71 234.214 315.432L277.656 315.868C281.24 315.432 285.28 313.71 286.616 305.512C287.052 287.811 286.616 263.634 283.022 255.862C281.24 252.843 279.003 248.091 276.3 250.249C275.865 253.704 282.587 261.476 275.429 261.05L268.697 247.665C267.35 246.368 266.459 247.665 266.459 248.962L267.35 258.031C267.35 259.318 264.667 260.179 262.885 258.456L259.301 247.665C258.846 245.071 257.044 245.071 256.163 248.526L253.916 258.456C253.916 259.743 251.233 261.476 250.777 258.031L249.876 251.12C249.005 248.526 246.748 251.12 245.877 254.13L239.154 264.07C235.57 266.218 234.67 264.505 236.907 260.615L240.926 249.813C241.382 248.091 240.491 247.665 238.699 248.962" fill="#fff200" fill-rule="nonzero" opacity="1" stroke="none"/>
<path d="M234.217 210.543C232.881 207.949 236.91 207.088 238.256 208.385C241.385 213.137 238.256 217.879 244.523 223.918C245.87 227.374 245.87 229.106 242.286 226.087C235.573 220.038 237.801 216.147 234.217 210.543" fill="#fff200" fill-rule="nonzero" opacity="1" stroke="none"/>
<path d="M245.873 223.918C241.833 217.444 243.625 211.404 242.724 206.662C243.625 203.633 247.199 204.058 247.199 206.662C249.882 212.256 246.764 214.424 248.546 221.76C251.684 223.493 246.764 228.235 245.873 223.918" fill="#fff200" fill-rule="nonzero" opacity="1" stroke="none"/>
<path d="M250.781 209.241C249.88 206.222 253.029 202.767 254.82 201.905C258.85 199.311 262.444 203.628 258.85 207.519C257.048 214.855 257.959 218.736 255.712 225.646C257.959 229.537 253.92 230.398 252.138 226.943C253.474 217.013 251.237 216.152 250.781 209.241" fill="#fff200" fill-rule="nonzero" opacity="1" stroke="none"/>
<path d="M261.091 208.38C261.091 205.35 266.012 205.786 266.012 209.677C266.457 217.023 264.675 222.626 262.438 229.101C260.636 230.398 257.042 230.398 258.398 227.369C259.299 221.765 261.091 219.597 261.091 208.38" fill="#fff200" fill-rule="nonzero" opacity="1" stroke="none"/>
<path d="M268.701 206.655C269.156 203.2 274.967 204.062 274.076 207.527C273.621 214.853 270.037 221.763 268.245 230.396C266.899 230.822 264.671 228.664 265.572 226.941C267.354 220.476 268.245 213.991 268.701 206.655" fill="#fff200" fill-rule="nonzero" opacity="1" stroke="none"/>
<path d="M270.49 227.37L276.301 206.659C276.301 204.075 281.231 202.768 281.231 208.382C277.657 220.044 273.628 220.47 272.727 227.37C272.727 232.994 267.807 230.816 270.49 227.37" fill="#fff200" fill-rule="nonzero" opacity="1" stroke="none"/>
<path d="M274.964 224.781L281.23 213.564C282.141 211.395 286.161 212.692 284.369 214.861L279.884 220.9C278.102 222.632 278.567 226.078 274.964 224.781" fill="#fff200" fill-rule="nonzero" opacity="1" stroke="none"/>
<path d="M241.383 235.577L242.729 238.171L244.967 237.31L247.204 236.003L245.422 234.716L243.195 233.854L241.383 235.577Z" fill="#fff200" fill-rule="nonzero" opacity="1" stroke="none"/>
<path d="M252.137 232.129L250.336 232.129L247.653 232.554L246.752 232.99L247.653 233.851L249.454 235.138L251.682 236.445L253.474 236.445L253.92 234.713L253.474 233.416L253.038 232.129L252.137 232.129Z" fill="#fff200" fill-rule="nonzero" opacity="1" stroke="none"/>
<path d="M256.165 230.828L255.274 231.689L255.274 233.847L256.165 235.58L258.402 236.431L259.739 236.015L260.64 235.58L261.095 234.709L261.095 233.847L260.194 232.996L259.303 232.115L257.957 230.828L257.046 230.392L256.165 230.828Z" fill="#fff200" fill-rule="nonzero" opacity="1" stroke="none"/>
<path d="M266.456 229.972L264.674 230.388L262.892 230.824L261.971 231.695L261.536 232.121L262.892 233.408L264.229 234.715L265.575 235.14L266.902 236.427L268.238 236.427L270.04 235.576L269.595 233.408L269.595 231.259L268.704 230.388L267.367 229.972L266.456 229.972Z" fill="#fff200" fill-rule="nonzero" opacity="1" stroke="none"/>
<path d="M249.001 226.079L249.001 227.801L249.457 229.534L249.882 230.395L251.239 230.395L253.04 230.821L253.922 230.395L253.04 229.098L251.684 228.237L250.783 226.94L250.783 226.079L250.338 225.217L249.001 226.079Z" fill="#fff200" fill-rule="nonzero" opacity="1" stroke="none"/>
<path d="M179.147 413.431L223.49 413.431L223.49 424.222L208.709 424.222L208.709 457.458L193.918 457.458L193.918 424.222L179.147 424.222L179.147 413.431Z" fill="#231f20" fill-rule="nonzero" opacity="1" stroke="none"/>
<path d="M254.368 413.427L257.051 413.427C261.981 413.427 265.11 413.863 267.803 414.289C270.04 415.14 271.832 416.457 273.179 418.605C274.961 420.338 275.426 422.931 275.426 425.506C275.426 428.099 274.961 430.258 274.08 431.99C272.743 433.713 271.387 435.01 269.159 436.307C267.803 437.158 266.446 437.584 264.229 438.019C266.021 438.465 267.357 439.336 267.803 439.762C268.704 440.188 269.159 441.049 270.486 441.91C271.387 443.207 271.832 444.069 272.288 444.94L279.455 457.454L262.882 457.454L255.269 444.069C254.824 443.633 254.368 443.207 254.368 442.772L254.368 431.119C254.824 431.119 256.17 431.119 257.497 430.693C258.398 430.693 259.298 429.832 260.189 429.396C260.635 428.535 261.09 427.664 261.09 426.802C261.09 425.08 260.635 424.219 259.298 423.367C258.398 422.486 256.606 422.06 254.368 422.06L254.368 413.427ZM232.875 457.454L232.875 413.427L254.368 413.427L254.368 422.06L253.913 422.06L247.656 422.06L247.656 431.119L253.913 431.119L254.368 431.119L254.368 442.772C253.477 441.91 253.032 441.049 252.576 440.613C251.23 440.188 250.349 439.762 249.002 439.762L247.656 439.762L247.656 457.454L232.875 457.454Z" fill="#231f20" fill-rule="nonzero" opacity="1" stroke="none"/>
<path d="M321.096 450.547L312.591 450.547L312.591 440.617L317.947 440.617L312.591 424.638L312.591 413.431L320.64 413.431L338.55 457.458L323.323 457.458L321.096 450.547ZM312.591 450.547L304.523 450.547L302.295 457.458L287.059 457.458L304.978 413.431L312.591 413.431L312.591 424.638L307.661 440.617L312.591 440.617L312.591 450.547Z" fill="#231f20" fill-rule="nonzero" opacity="1" stroke="none"/>
<path d="M255.72 65.0596L252.584 70.6645C249.891 74.5454 238.232 76.2754 246.746 85.344L246.746 94.8523L178.253 94.8523C170.204 95.278 168.391 96.1586 167.51 100.891C163.015 104.346 159.003 102.193 158.102 96.1535C152.28 101.321 157.675 109.092 163.506 108.231L164.44 108.231L134.348 235.142L131.679 235.142C122.719 234.28 124.966 246.382 131.679 244.65C141.539 244.65 132.595 263.62 151.396 265.768L184.091 265.768C200.219 265.768 194.837 247.244 203.341 244.65C211.39 246.382 210.497 233.419 202.874 235.142L198.904 235.142L168.778 108.231L170.212 108.231L246.746 108.231L246.746 203.614L264.228 203.614L264.228 108.231L342.129 108.231L342.196 108.231L312.103 235.142L309 235.142C300.031 234.28 302.296 246.382 309.434 244.65C318.849 244.65 309.917 263.62 328.717 265.768L361.379 265.768C377.507 265.768 372.125 247.244 380.629 244.65C388.698 246.382 388.264 233.419 380.196 235.142L376.192 235.142L346.099 108.231L348.868 108.231C355.145 109.092 360.059 101.321 354.673 96.1535C353.792 102.193 349.306 104.346 344.831 100.891C343.921 96.1586 342.603 95.278 334.089 94.8523L264.228 94.8523L264.228 85.344C273.168 77.1466 260.617 73.686 258.389 70.2308L255.72 65.0596ZM343.03 114.636L343.03 235.142L314.538 235.142L343.03 114.636ZM345.265 114.67L373.757 235.142L345.265 235.142L345.265 114.67ZM167.944 116.338L196.435 235.142L167.944 235.142L167.944 116.338ZM165.275 116.605L165.275 235.142L137.217 235.142L165.275 116.605Z" fill="#231f20" fill-rule="nonzero" opacity="1" stroke="none"/>
<path d="M134.82 241.185C153.631 241.185 145.572 255.005 158.551 262.767C153.185 264.935 145.127 263.193 143.335 255.431C140.652 244.64 138.404 244.64 134.82 241.185" fill="#fff200" fill-rule="nonzero" opacity="1" stroke="none"/>
<path d="M312.148 241.185C330.949 241.185 322.89 255.005 336.315 262.767C330.949 264.935 322.89 263.193 320.642 255.431C317.95 244.64 315.722 244.64 312.148 241.185" fill="#fff200" fill-rule="nonzero" opacity="1" stroke="none"/>
<path d="M128.106 399.718L155.866 399.718L155.866 379.326C147.362 391.414 129.007 378.89 128.106 396.592" fill="#fff200" fill-rule="nonzero" opacity="1" stroke="none"/>
<path d="M386.564 399.978C386.564 399.978 361.051 399.978 361.051 399.978L360.946 379.326C369.441 391.414 386.537 379.104 386.564 399.978Z" fill="#fff200" fill-rule="nonzero" opacity="1" stroke="none"/>
</g>
</g>
</svg>
